 <svg data-v-2cb57da0="" version="1.0" xmlns="http://www.w3.org/2000/svg" xmlns:xlink="http://www.w3.org/1999/xlink" width="100%" height="100%" viewBox="0 0 340.000000 250.000000" preserveAspectRatio="xMidYMid meet" color-interpolation-filters="sRGB" style="margin: auto;"><rect data-v-2cb57da0="" x="0" y="0" width="100%" height="100%" fill="#ffffff" fill-opacity="1" class="background"></rect> <rect data-v-2cb57da0="" x="0" y="0" width="100%" height="100%" fill="url(#watermark)" fill-opacity="1" class="watermarklayer"></rect> <g data-v-2cb57da0="" fill="#1686cb" class="iconlinesvg-g iconlinesvg" transform="translate(41.80140991212102,95.50954589853063)"><g class="tp-name"><g transform="translate(0, 0)"><g data-gra="path-name" fill="#1686cb" transform="scale(1.5999999999999996)"><path d="M7.37-3.45L24.62-3.45L24.62 0L3.45 0L3.45-28.69L24.30-28.69L24.30-25.40L7.37-25.40L7.37-16.46L23.05-16.46L23.05-13.01L7.37-13.01L7.37-3.45Z" transform="translate(-3.449477351916377, 28.69337979094077)"></path></g></g><g transform="translate(37, 16.2058573447582)"><g><g class="imagesvg"><g><rect fill="#1686cb" fill-opacity="0" stroke-width="2" x="0" y="0" width="22.694101345411635" height="26.567978254734467" class="image-rect"></rect> <svg filter="url(#colors1144495134)" x="0" y="0" width="22.694101345411635" height="26.567978254734467" filtersec="colorsf2050253895" class="image-svg-svg primary" style="overflow: visible;"><svg xmlns="http://www.w3.org/2000/svg" viewBox="0.6138558387756348 0.3410000801086426 83.28719329833984 97.50399780273438"><path fill="#333333" d="M82.685 76.951L54.83 7.841l-.27-.4c-2.545-4.423-7.1-7.1-12.323-7.1s-9.77 2.684-12.316 7.1l-.131.269L1.928 76.95C-.218 81.906.32 87.53 3.135 91.821c2.546 3.885 6.693 6.024 11.247 6.024h55.98c4.554 0 8.57-2.008 11.116-5.762 2.684-4.147 3.215-9.908 1.207-15.132zM14.651 63.29l21.294-52.633c1.338-2.277 3.746-3.615 6.43-3.615s4.955 1.338 6.431 3.615l11.116 27.586C49.476 52.305 33.136 61.951 14.652 63.29z"></path></svg></svg> <defs><filter id="colors1144495134"><feColorMatrix type="matrix" values="0 0 0 0 0.93359375  0 0 0 0 0.35546875  0 0 0 0 0.140625  0 0 0 1 0" class="icon-fecolormatrix"></feColorMatrix></filter> <filter id="colorsf2050253895"><feColorMatrix type="matrix" values="0 0 0 0 0.99609375  0 0 0 0 0.99609375  0 0 0 0 0.99609375  0 0 0 1 0" class="icon-fecolormatrix"></feColorMatrix></filter> <filter id="colorsb2726728231"><feColorMatrix type="matrix" values="0 0 0 0 0  0 0 0 0 0  0 0 0 0 0  0 0 0 1 0" class="icon-fecolormatrix"></feColorMatrix></filter></defs></g></g></g></g><g transform="translate(63, 0)"><g data-gra="path-name" fill="#1686cb" transform="scale(1.5999999999999996)"><path d="M17.87-14.90L17.87-14.90L14.43-14.90Q14.43-18.50 9.41-18.50L9.41-18.50Q5.49-18.34 5.33-15.52L5.33-15.52Q5.02-13.48 9.09-12.70L9.09-12.70L12.70-11.92Q18.66-10.51 18.50-6.27L18.50-6.27Q18.19 0 10.35 0.31L10.35 0.31Q1.41 0.31 1.25-6.74L1.25-6.74L4.55-6.74Q4.86-2.35 10.35-2.35L10.35-2.35Q14.90-2.51 15.05-5.80L15.05-5.80Q15.37-7.68 10.98-8.78L10.98-8.78L6.74-9.72Q1.88-10.98 1.88-14.74L1.88-14.74Q2.20-21.17 9.88-21.64L9.88-21.64Q17.40-21.48 17.87-14.90Z" transform="translate(-1.254355400696864, 28.69337979094077)"></path></g></g><g transform="translate(94, 0)"><g data-gra="path-name" fill="#1686cb" transform="scale(1.5999999999999996)"><path d="M10.03-3.76L10.19-3.76L15.68-21.01L19.60-21.01Q18.82-18.97 17.40-14.90L17.40-14.90Q13.95-5.33 12.07-0.47L12.07-0.47Q9.41 6.11 8.31 6.90L8.31 6.90Q7.21 8.31 3.76 8.15L3.76 8.15Q3.14 8.15 2.35 7.84L2.35 7.84L2.35 4.70Q2.51 4.70 2.67 4.86L2.67 4.86Q3.61 5.17 4.39 5.17L4.39 5.17Q6.43 5.96 8.15 0.31L8.15 0.31L0.47-21.01L4.39-21.01L10.03-3.76Z" transform="translate(-0.470383275261324, 28.69337979094077)"></path></g></g><g transform="translate(128, 0)"><g data-gra="path-name" fill="#1686cb" transform="scale(1.5999999999999996)"><path d="M16.78-12.39L7.37-12.39L7.37 0L3.45 0L3.45-28.69L16.78-28.69Q26.34-28.69 26.34-21.01L26.34-21.01Q26.34-16.31 22.26-14.11L22.26-14.11Q25.71-13.17 25.71-8.62L25.71-8.62L26.03-3.45Q25.87-1.25 27.44-0.63L27.44-0.63L27.44 0L22.58 0Q22.11-2.04 21.95-7.21L21.95-7.21Q22.11-12.39 16.78-12.39L16.78-12.39ZM17.09-25.56L7.37-25.56L7.37-15.68L16.46-15.68Q22.26-15.68 22.26-20.70L22.26-20.70Q22.26-25.56 17.09-25.56L17.09-25.56Z" transform="translate(-3.449477351916377, 28.69337979094077)"></path></g></g><g transform="translate(170, 0)"><g data-gra="path-name" fill="#1686cb" transform="scale(1.5999999999999996)"><path d="M14.74 0L3.14 0L3.14-28.69L14.90-28.69Q26.50-28.07 26.97-14.74L26.97-14.74Q26.34-0.31 14.74 0L14.74 0ZM14.27-25.56L7.06-25.56L7.06-3.29L14.58-3.29Q22.74-3.76 23.05-14.43L23.05-14.43Q22.89-25.24 14.27-25.56L14.27-25.56Z" transform="translate(-3.1358885017421607, 28.69337979094077)"></path></g></g><g transform="translate(212, 0)"><g data-gra="path-name" fill="#1686cb" transform="scale(1.5999999999999996)"><path d="M30.57-28.69L30.57 0L26.81 0L26.81-16.93Q26.81-19.29 26.81-24.15L26.81-24.15L18.66 0L14.74 0L6.74-24.15L6.59-24.15Q6.59-22.42 6.74-18.97L6.74-18.97Q6.74-17.25 6.74-16.93L6.74-16.93L6.74 0L2.82 0L2.82-28.69L8.47-28.69L16.78-4.39L24.93-28.69L30.57-28.69Z" transform="translate(-2.822299651567944, 28.69337979094077)"></path></g></g></g> <!----></g><defs v-gra="od"></defs></svg>